Coordinates
version=1
nRows=11
nColumns=63
inDegrees=yes

Units are S.I. units (second, meters, Newtons, ...)
If the header above contains a line with 'inDegrees', this indicates whether rotational values are in degrees (yes) or radians (no).

endheader
time	pelvis_tilt	pelvis_list	pelvis_rotation	pelvis_tx	pelvis_ty	pelvis_tz	hip_flexion_r	hip_adduction_r	hip_rotation_r	knee_angle_r	knee_angle_r_beta	ankle_angle_r	subtalar_angle_r	mtp_angle_r	hip_flexion_l	hip_adduction_l	hip_rotation_l	knee_angle_l	knee_angle_l_beta	ankle_angle_l	subtalar_angle_l	mtp_angle_l	L5_S1_Flex_Ext	L5_S1_Lat_Bending	L5_S1_axial_rotation	L4_L5_Flex_Ext	L4_L5_Lat_Bending	L4_L5_axial_rotation	L3_L4_Flex_Ext	L3_L4_Lat_Bending	L3_L4_axial_rotation	L2_L3_Flex_Ext	L2_L3_Lat_Bending	L2_L3_axial_rotation	L1_L2_Flex_Ext	L1_L2_Lat_Bending	L1_L2_axial_rotation	L1_T12_Flex_Ext	L1_T12_Lat_Bending	L1_T12_axial_rotation	Abs_r3	Abs_r2	Abs_r1	Abs_t1	Abs_t2	neck_flexion	neck_bending	neck_rotation	arm_flex_r	arm_add_r	arm_rot_r	elbow_flex_r	pro_sup_r	wrist_flex_r	wrist_dev_r	arm_flex_l	arm_add_l	arm_rot_l	elbow_flex_l	pro_sup_l	wrist_flex_l	wrist_dev_l
      0.00800000	    -43.24779831	     -2.83785526	      1.36473637	     -0.24816843	      1.04225437	      0.25784398	     78.64717083	     -6.01521390	     -2.78927275	     70.01187970	      1.22193782	     -5.23635888	    -11.65631022	      0.00000000	    113.21822676	     -6.48983299	     -1.41930984	     93.49420262	      1.63178167	     16.24841203	      2.85535149	      0.00000000	     -0.03739320	      0.07749218	     -0.66207808	     -0.06944291	      0.10306460	     -0.70345796	     -0.06143329	      0.18841448	     -0.70345796	     -0.04273669	      0.18841448	     -0.57931832	     -0.03472333	      0.15802205	     -0.53793844	     -0.02136647	      0.12003539	     -0.49655856	     -0.26709589	      0.87660703	     -3.68227965	      0.00000000	      0.00000000	     -0.00000000	      0.00000000	      0.00000000	     72.27579128	    -14.21180872	     28.12931789	     31.60024367	     49.54621366	      0.00000000	      5.60299148	     74.58779898	     -8.40283094	     26.89581763	     33.95251254	     55.55675562	      0.00000000	      5.60299148
      0.01700000	    -43.26030944	     -2.42561947	     -0.21948569	     -0.24892423	      1.04204887	      0.25990420	     80.76916848	     -5.32285357	     -2.20289855	     75.55810255	      1.31873767	     -4.89977901	    -11.93446513	      0.00000000	    110.87265886	     -7.39787248	     -0.88910095	     88.61957567	      1.54670338	     16.42646974	      2.46554223	      0.00000000	     -0.03540303	      0.04817611	     -0.34533152	     -0.06574696	      0.06407423	     -0.36691474	     -0.05816363	      0.11713540	     -0.36691474	     -0.04046212	      0.11713540	     -0.30216508	     -0.03287525	      0.09824073	     -0.28058186	     -0.02022929	      0.07462480	     -0.25899864	     -0.25288029	      0.54497783	     -1.92063030	      0.00000000	      0.00000000	     -0.00000000	      0.00000000	      0.00000000	     72.71612299	    -13.89944705	     28.38228445	     31.02766449	     49.56923198	      0.00000000	      5.58981371	     75.04552742	     -7.80488748	     26.21908465	     32.96275363	     55.49181454	      0.00000000	      5.58981371
      0.02500000	    -43.25873651	     -2.07614904	     -0.62751034	     -0.24892461	      1.04215730	      0.26029114	     81.50282244	     -5.25735656	     -1.79964141	     77.28255220	      1.34883499	     -4.56748637	    -11.68208774	      0.00000000	    109.86927473	     -7.73363826	     -1.14425744	     86.87859505	      1.51631753	     16.25231461	      2.19344983	      0.00000000	     -0.03729999	      0.01766059	     -0.28975123	     -0.06926981	      0.02348859	     -0.30786068	     -0.06128015	      0.04293996	     -0.30786068	     -0.04263016	      0.04293996	     -0.25353233	     -0.03463677	      0.03601348	     -0.23542288	     -0.02131321	      0.02735626	     -0.21731342	     -0.26643009	      0.19978014	     -1.61150943	      0.00000000	      0.00000000	     -0.00000000	      0.00000000	      0.00000000	     72.70384292	    -13.76396205	     28.47782209	     31.24072099	     49.47435651	      0.00000000	      5.55920323	     74.98573472	     -7.99698359	     25.90546459	     33.07357420	     55.28944733	      0.00000000	      5.55920323
      0.03300000	    -43.27361098	     -1.95293479	     -1.13769867	     -0.24882836	      1.04221287	      0.26060767	     82.33968093	     -5.03990646	     -1.58794026	     79.22647901	      1.38276291	     -4.48700712	    -11.71481665	      0.00000000	    108.77532702	     -8.03831876	     -1.07312755	     84.90309193	      1.48183850	     16.10344051	      1.93679956	      0.00000000	     -0.03532058	      0.01902467	     -0.21348100	     -0.06559386	      0.02530282	     -0.22682356	     -0.05802819	      0.04625659	     -0.22682356	     -0.04036789	      0.04625659	     -0.18679587	     -0.03279869	      0.03879512	     -0.17345331	     -0.02018218	      0.02946922	     -0.16011075	     -0.25229140	      0.21521092	     -1.18731727	      0.00000000	      0.00000000	     -0.00000000	      0.00000000	      0.00000000	     72.69570440	    -13.67703479	     28.50903275	     31.44247233	     49.46341163	      0.00000000	      5.55296892	     74.88295077	     -8.20366983	     25.80318933	     33.23960060	     55.28993795	      0.00000000	      5.55296892
      0.04200000	    -43.26721235	     -1.32821310	     -1.49260381	     -0.24864983	      1.04237878	      0.26106993	     83.41102642	     -5.10730569	     -0.91695722	     81.49719962	      1.42239446	     -4.48388270	    -11.55493556	      0.00000000	    107.24861908	     -8.36950321	     -1.79886037	     82.45787494	      1.43916141	     16.01679332	      1.30870014	      0.00000000	     -0.03542533	     -0.04753241	     -0.18441596	     -0.06578838	     -0.06321811	     -0.19594196	     -0.05820027	     -0.11557031	     -0.19594196	     -0.04048761	     -0.11557031	     -0.16136397	     -0.03289596	     -0.09692810	     -0.14983797	     -0.02024203	     -0.07362771	     -0.13831197	     -0.25303958	     -0.53769617	     -1.02566626	      0.00000000	      0.00000000	     -0.00000000	      0.00000000	      0.00000000	     72.54275154	    -13.41618888	     28.52133776	     31.77396774	     49.43131176	      0.00000000	      5.54086491	     74.84103295	     -8.60626777	     25.64183279	     33.44446672	     55.29890478	      0.00000000	      5.54086491
      0.05000000	    -43.24324577	     -0.83334667	     -1.93911107	     -0.24839000	      1.04247297	      0.26154054	     84.51779169	     -5.03159772	     -0.31758668	     83.90730922	      1.46445881	     -4.27859326	    -11.36002758	      0.00000000	    105.63125261	     -8.71980105	     -2.37618459	     79.86818461	      1.39396279	     15.67511963	      0.67378997	      0.00000000	     -0.03647377	     -0.09574429	     -0.13012047	     -0.06773544	     -0.12733991	     -0.13825300	     -0.05992276	     -0.23279267	     -0.13825300	     -0.04168588	     -0.23279267	     -0.11385541	     -0.03386955	     -0.19524176	     -0.10572289	     -0.02084111	     -0.14830791	     -0.09759036	     -0.26052852	     -1.08307859	     -0.72369104	      0.00000000	      0.00000000	     -0.00000000	      0.00000000	      0.00000000	     72.43007730	    -13.20841026	     28.34010558	     32.02185839	     49.36273402	      0.00000000	      5.52761760	     74.81662928	     -8.98170239	     25.63851040	     33.55616348	     55.33849355	      0.00000000	      5.52761760
      0.05800000	    -43.24514789	     -0.82860233	     -2.59470490	     -0.24810052	      1.04250791	      0.26193526	     85.55919761	     -4.63221182	     -0.20183148	     86.25901266	      1.50550378	     -4.01785312	    -11.38206022	      0.00000000	    104.11201313	     -9.12007538	     -2.30013477	     77.26565966	      1.34854016	     15.21544763	      0.48539376	      0.00000000	     -0.03552188	     -0.07579356	     -0.02611979	     -0.06596768	     -0.10080544	     -0.02775227	     -0.05835889	     -0.18428447	     -0.02775227	     -0.04059795	     -0.18428447	     -0.02285481	     -0.03298562	     -0.15455824	     -0.02122233	     -0.02029720	     -0.11740423	     -0.01958984	     -0.25372922	     -0.85739195	     -0.14527042	      0.00000000	      0.00000000	     -0.00000000	      0.00000000	      0.00000000	     72.46383119	    -13.08596190	     28.28892911	     32.17258377	     49.34126140	      0.00000000	      5.52354782	     74.71118277	     -9.15924434	     25.64106785	     33.63974501	     55.35083704	      0.00000000	      5.52354782
      0.06700000	    -43.17127327	      0.06280542	     -2.71645296	     -0.24761820	      1.04257590	      0.26219354	     86.90494027	     -4.90916631	      0.84893177	     88.98022401	      1.55299788	     -3.91472933	    -10.95540687	      0.00000000	    102.01166120	     -9.16428893	     -3.54833653	     74.19915553	      1.29501957	     15.05820738	     -0.34514619	      0.00000000	     -0.03750231	     -0.17824403	     -0.03386934	     -0.06964555	     -0.23706455	     -0.03598618	     -0.06161255	     -0.43338252	     -0.03598618	     -0.04286139	     -0.43338252	     -0.02963567	     -0.03482465	     -0.36347522	     -0.02751884	     -0.02142882	     -0.27610000	     -0.02540201	     -0.26787528	     -2.01633207	     -0.18837111	      0.00000000	      0.00000000	     -0.00000000	      0.00000000	      0.00000000	     72.20911131	    -12.82638288	     28.18504804	     32.48036736	     49.28639114	      0.00000000	      5.51205118	     74.72263906	     -9.57187685	     25.64114438	     33.79221957	     55.38495656	      0.00000000	      5.51205118
      0.07500000	    -43.09694473	      0.62349366	     -2.98149666	     -0.24710951	      1.04252512	      0.26250332	     88.18403003	     -4.92310564	      1.61744433	     91.63306181	      1.59929863	     -3.45260484	    -10.45156591	      0.00000000	    100.06312684	     -9.29105436	     -4.44837098	     71.32227343	      1.24480850	     14.42852866	     -0.89073323	      0.00000000	     -0.03808074	     -0.23604662	     -0.00321974	     -0.07071974	     -0.31394201	     -0.00342098	     -0.06256285	     -0.57392375	     -0.00342098	     -0.04352248	     -0.57392375	     -0.00281728	     -0.03536178	     -0.48134627	     -0.00261604	     -0.02175934	     -0.36563621	     -0.00241481	     -0.27200692	     -2.67020658	     -0.01790725	      0.00000000	      0.00000000	     -0.00000000	      0.00000000	      0.00000000	     72.02467822	    -12.59604876	     27.86779057	     32.65139781	     49.18767273	      0.00000000	      5.49779014	     74.72941336	     -9.88643758	     25.86753096	     33.83857091	     55.46391271	      0.00000000	      5.49779014
      0.08300000	    -43.02672131	      1.00376803	     -3.19108788	     -0.24651950	      1.04245713	      0.26266866	     89.43602080	     -4.95491175	      2.19302053	     94.20195782	      1.64413433	     -2.98828609	     -9.94963376	      0.00000000	     98.11368001	     -9.28613444	     -5.14710660	     68.45876313	      1.19483082	     13.90758695	     -1.11742179	      0.00000000	     -0.03761448	     -0.26971337	      0.02437576	     -0.06985385	     -0.35871879	      0.02589925	     -0.06179682	     -0.65578110	      0.02589925	     -0.04298959	     -0.65578110	      0.02132879	     -0.03492880	     -0.54999951	      0.01980531	     -0.02149291	     -0.41778602	      0.01828182	     -0.26867645	     -3.05105164	      0.13557067	      0.00000000	      0.00000000	     -0.00000000	      0.00000000	      0.00000000	     71.88196329	    -12.43229522	     27.67282097	     32.78771028	     49.11424087	      0.00000000	      5.48508831	     74.67007718	    -10.13383201	     26.06107602	     33.87726080	     55.53163705	      0.00000000	      5.48508831
      0.09200000	    -42.97017857	      1.05052071	     -3.57935854	     -0.24598394	      1.04247310	      0.26282662	     90.60448621	     -4.78495885	      2.37481807	     96.54644609	      1.68505337	     -2.56199030	     -9.71054205	      0.00000000	     96.27953109	     -9.41286728	     -5.42063108	     65.73036581	      1.14721130	     13.23382999	     -0.96693413	      0.00000000	     -0.03846891	     -0.25692925	      0.09655418	     -0.07144062	     -0.34171591	      0.10258882	     -0.06320058	     -0.62469779	      0.10258882	     -0.04396612	     -0.62469779	      0.08448491	     -0.03572223	     -0.52393013	      0.07845027	     -0.02198114	     -0.39798341	      0.07241564	     -0.27477960	     -2.90643510	      0.53700541	      0.00000000	      0.00000000	     -0.00000000	      0.00000000	      0.00000000	     71.86754653	    -12.40548506	     27.64188971	     32.82024001	     49.09047405	      0.00000000	      5.47901503	     74.51353390	    -10.24287498	     26.13489251	     33.91670620	     55.55978328	      0.00000000	      5.47901503
